<?xml version="1.0" encoding="UTF-8" standalone="no" ?>
<!DOCTYPE svg PUBLIC "-//W3C//DTD SVG 1.1//EN" "http://www.w3.org/Graphics/SVG/1.1/DTD/svg11.dtd">
<svg xmlns="http://www.w3.org/2000/svg" xmlns:xlink="http://www.w3.org/1999/xlink" version="1.1" width="500" height="500" viewBox="0 0 500 500" xml:space="preserve">
<desc>Created with Fabric.js 4.6.0</desc>
<defs>
</defs>
<g transform="matrix(20.48 0 0 20.48 250 250)" id="17NfU5_GsNlm373rH5Uhl"  >
<path style="stroke: none; stroke-width: 1; stroke-dasharray: none; stroke-linecap: butt; stroke-dashoffset: 0; stroke-linejoin: miter; stroke-miterlimit: 4; fill: none; fill-rule: nonzero; opacity: 1;" vector-effect="non-scaling-stroke"  transform=" translate(-12, -12)" d="M 0 0 L 24 0 L 24 24 L 0 24 z" stroke-linecap="round" />
</g>
<g transform="matrix(20.48 0 0 20.48 250 250)" id="XINXLxeBVIF-7zwciHhEb"  >
<path style="stroke: none; stroke-width: 1; stroke-dasharray: none; stroke-linecap: butt; stroke-dashoffset: 0; stroke-linejoin: miter; stroke-miterlimit: 4; fill: rgb(192,204,218); fill-rule: nonzero; opacity: 1;" vector-effect="non-scaling-stroke"  transform=" translate(-12, -12)" d="M 6.94 14.036 C 6.707000000000001 14.66 6.510000000000001 15.235999999999999 6.3340000000000005 15.818999999999999 C 7.2940000000000005 15.122 8.435 14.68 9.752 14.514999999999999 C 12.265 14.200999999999999 14.498000000000001 12.541999999999998 15.628 10.456999999999999 L 14.172 9.001999999999999 L 15.585 7.586999999999999 L 16.585 6.5859999999999985 C 17.015 6.155999999999999 17.5 5.361999999999998 18.013 4.217999999999998 C 12.420000000000002 5.084999999999998 8.995000000000001 8.509999999999998 6.939000000000002 14.035999999999998 z M 17 9.001 L 18 10 C 17 13 14 16 10 16.5 C 7.3309999999999995 16.834 5.664 18.667 4.998 22 L 3 22 C 4 16 6 2 21 2 C 20 4.997 19.002 6.996 18.003 7.997 L 17 9.001 z" stroke-linecap="round" />
</g>
</svg>